<?xml version="1.0" standalone="no"?>
<!DOCTYPE svg PUBLIC "-//W3C//DTD SVG 20010904//EN"
 "http://www.w3.org/TR/2001/REC-SVG-20010904/DTD/svg10.dtd">
<svg version="1.0" xmlns="http://www.w3.org/2000/svg"
 width="500.000000pt" height="500.000000pt" viewBox="0 0 500.000000 500.000000"
 preserveAspectRatio="xMidYMid meet">

<g transform="translate(0.000000,500.000000) scale(0.100000,-0.100000)"
fill="#000000" stroke="none">
<path d="M2331 3687 l-134 -123 -147 -375 c-81 -206 -198 -498 -260 -649 -62
-151 -115 -281 -117 -287 -4 -10 15 -13 75 -13 l81 0 23 43 23 42 120 7 c213
11 388 29 480 49 49 10 92 16 96 11 4 -4 17 -40 28 -79 l22 -73 159 0 159 0
-16 53 c-8 28 -36 122 -62 207 l-46 155 -155 -4 c-85 -2 -156 -4 -157 -5 -2
-1 5 -28 14 -59 9 -32 14 -60 11 -62 -3 -3 -131 -4 -286 -3 l-281 3 50 115
c27 63 99 239 160 390 61 151 114 278 118 283 4 4 26 -57 50 -135 23 -79 54
-181 68 -226 l25 -84 26 25 c44 40 195 147 208 147 8 0 18 -9 24 -21 7 -11 14
-18 17 -16 6 7 -229 807 -237 807 -3 0 -65 -56 -139 -123z"/>
<path d="M2606 2884 c-54 -40 -105 -82 -114 -95 -14 -20 -14 -23 4 -36 10 -8
28 -12 39 -9 11 2 158 8 328 12 l307 7 0 -262 0 -261 113 0 114 0 6 188 c4
103 7 221 7 263 l0 77 188 7 c334 13 327 14 324 -13 l-2 -24 36 22 c19 13 72
43 116 69 95 54 112 75 83 97 -16 13 -39 15 -120 10 -193 -11 -1260 -29 -1288
-22 -15 3 -31 15 -35 25 -6 16 -19 9 -106 -55z"/>
<path d="M1280 2188 c-1 -2 -2 -49 -3 -106 l-2 -102 45 0 c25 0 52 5 60 10 11
7 3 10 -30 10 l-45 0 5 95 c5 86 3 95 -12 95 -10 0 -18 -1 -18 -2z"/>
<path d="M1493 2175 c-38 -16 -73 -68 -73 -107 0 -39 45 -88 81 -88 68 0 119
49 119 115 0 70 -63 109 -127 80z m79 -35 c26 -27 30 -36 25 -67 -8 -47 -33
-73 -70 -73 -47 0 -77 34 -77 87 0 81 65 109 122 53z"/>
<path d="M1680 2180 c-11 -7 -12 -10 -2 -10 10 0 13 -21 10 -95 -2 -79 -1 -95
12 -95 12 0 14 11 11 52 l-3 53 55 -52 c53 -50 79 -63 91 -45 2 4 -8 14 -24
21 -16 7 -43 29 -59 50 l-29 37 46 48 c41 43 43 47 21 44 -15 -2 -23 -9 -22
-19 2 -8 -13 -31 -33 -50 l-36 -34 4 53 c3 54 -7 65 -42 42z"/>
<path d="M1977 2178 c-6 -4 7 -8 29 -10 l39 -3 3 -64 c2 -35 -1 -77 -7 -92 -9
-27 -8 -29 14 -29 13 0 27 5 30 10 3 6 0 10 -7 10 -10 0 -12 20 -10 85 l3 85
40 0 c21 0 39 4 39 10 0 11 -154 9 -173 -2z"/>
<path d="M2248 2183 l-56 -4 9 -32 c5 -18 7 -63 5 -100 l-3 -67 46 2 c40 1 41
2 11 5 -35 4 -35 4 -32 48 4 42 6 45 32 45 16 0 32 5 35 10 4 6 -8 10 -29 10
-34 0 -36 2 -36 35 0 34 1 35 40 35 22 0 40 5 40 10 0 6 -1 9 -2 8 -2 -1 -28
-3 -60 -5z"/>
<path d="M2445 2181 c-16 -6 -10 -9 25 -13 49 -5 64 -2 55 13 -7 11 -52 11
-80 0z"/>
<path d="M2580 2180 c-11 -7 -12 -10 -2 -10 11 0 13 -20 10 -95 -3 -84 -1 -95
14 -95 9 0 20 5 23 10 3 6 1 10 -4 10 -6 0 -11 20 -11 45 l0 45 56 0 56 0 -4
-55 c-2 -46 0 -55 14 -55 9 0 20 5 23 10 3 6 1 10 -5 10 -8 0 -10 29 -8 95 3
95 -1 105 -32 85 -10 -6 -11 -10 -2 -10 7 0 12 -14 12 -36 l0 -35 -52 4 -53 4
0 41 c0 43 -8 50 -35 32z"/>
<path d="M3077 2160 c-11 -51 -8 -180 3 -180 6 0 9 3 9 8 -1 4 -1 35 0 69 l1
62 65 -69 c74 -79 73 -80 84 57 6 70 4 83 -8 81 -11 -2 -14 -20 -12 -83 l2
-80 -51 50 c-28 28 -60 65 -69 84 l-18 34 -6 -33z"/>
<path d="M3310 2180 c-11 -7 -12 -10 -2 -10 11 0 13 -20 10 -95 -2 -79 -1 -95
12 -95 12 0 14 15 12 91 -2 60 1 95 8 105 10 11 9 14 -6 14 -11 0 -26 -5 -34
-10z"/>
<path d="M3695 2181 l-50 -6 0 -98 0 -97 45 2 c38 1 40 2 12 5 -29 4 -33 7
-28 26 3 12 6 32 6 45 0 17 6 22 24 22 14 0 28 5 31 10 4 6 -7 10 -24 10 -29
0 -31 3 -31 35 0 33 2 35 34 35 19 0 38 5 41 10 3 6 3 9 -2 8 -4 -1 -30 -4
-58 -7z"/>
<path d="M3825 2182 c-5 -4 -10 -51 -10 -105 0 -84 2 -97 17 -97 19 0 33 16
19 22 -4 1 -6 40 -3 86 4 70 7 82 23 82 29 0 51 -29 44 -58 -5 -22 -4 -24 9
-13 23 19 20 57 -6 75 -23 17 -76 21 -93 8z"/>
<path d="M4090 2183 c-26 -10 -60 -46 -60 -64 0 -10 19 -31 42 -46 51 -34 59
-58 25 -74 -18 -8 -30 -8 -47 1 -16 8 -25 9 -33 1 -16 -16 32 -31 63 -19 70
26 77 67 20 103 -23 14 -43 32 -47 41 -8 23 17 45 48 42 16 -1 29 2 29 7 1 12
-19 16 -40 8z"/>
<path d="M4255 2181 l-50 -6 0 -98 0 -97 45 2 c37 1 39 2 13 5 -32 4 -33 6
-33 49 0 42 1 44 29 44 17 0 33 5 36 10 4 6 -8 10 -29 10 -34 0 -36 2 -36 35
0 34 1 35 39 35 22 0 43 5 46 10 3 6 3 9 -2 8 -4 -1 -30 -4 -58 -7z"/>
<path d="M1131 2167 c-6 -8 -24 -47 -41 -87 -17 -40 -35 -79 -41 -87 -9 -10
-7 -13 10 -13 12 0 20 4 16 9 -9 16 16 59 39 65 38 10 45 6 56 -34 6 -23 17
-40 25 -40 16 0 29 17 16 22 -5 1 -20 42 -35 91 -15 48 -28 87 -30 87 -2 0 -9
-6 -15 -13z m13 -59 c9 -35 8 -38 -18 -38 -23 0 -24 2 -13 30 14 36 23 38 31
8z"/>
<path d="M2828 2093 c2 -49 8 -94 14 -100 12 -15 66 -17 86 -5 8 6 2 9 -17 9
-53 0 -63 17 -59 105 2 64 0 78 -12 78 -12 0 -14 -15 -12 -87z"/>
<path d="M2958 2080 l3 -100 27 0 c19 0 23 3 14 9 -10 6 -13 32 -10 100 3 85
2 91 -17 91 -19 0 -20 -6 -17 -100z"/>
<path d="M3414 2158 c8 -13 26 -58 41 -100 15 -43 31 -75 36 -72 14 8 60 90
80 144 18 47 18 50 1 50 -12 0 -17 -9 -18 -33 -1 -38 -40 -131 -52 -123 -4 2
-19 39 -33 80 -20 65 -27 76 -47 76 -21 0 -21 -2 -8 -22z"/>
<path d="M2393 2155 c-27 -19 -46 -75 -37 -109 13 -52 90 -84 134 -56 11 7 5
10 -23 10 -76 0 -114 83 -66 144 24 30 22 32 -8 11z"/>
<path d="M3882 2081 c-6 -4 6 -25 32 -55 32 -37 47 -48 60 -43 17 7 16 9 -7
27 -14 11 -36 33 -50 49 -13 16 -29 26 -35 22z"/>
<path d="M1473 1808 c-17 -35 -53 -94 -81 -133 -42 -60 -60 -76 -131 -115
l-82 -45 148 -3 c163 -3 239 9 373 58 80 29 232 105 190 95 -46 -11 -357 -18
-363 -9 -3 6 7 30 23 55 15 25 42 71 60 102 l32 57 -69 0 -69 0 -31 -62z"/>
<path d="M2776 1728 c43 -143 51 -178 37 -178 -5 0 -19 -9 -33 -20 l-25 -20
158 0 157 0 0 141 c0 79 -5 159 -12 180 l-11 39 -157 0 -158 0 44 -142z"/>
<path d="M3170 1648 c0 -311 -19 -404 -101 -507 l-41 -51 109 -2 c244 -6 247
-5 379 84 57 39 103 72 102 73 -2 1 -37 -3 -78 -11 -41 -7 -117 -13 -169 -14
l-94 0 20 23 c64 69 81 149 89 410 l7 217 -111 0 -112 0 0 -222z"/>
</g>
</svg>
